<svg xmlns="http://www.w3.org/2000/svg" viewBox="0 0 413.33 413.33"><defs><style>.cls-1{fill:#d3daef;}.cls-2,.cls-4,.cls-8{fill:#7998b2;}.cls-2,.cls-4,.cls-5{stroke:#807373;}.cls-2,.cls-4,.cls-5,.cls-6{stroke-miterlimit:10;}.cls-2,.cls-3,.cls-5{fill-rule:evenodd;}.cls-3{fill:#3e4583;}.cls-5{fill:#ed6f35;}.cls-6{fill:none;stroke:#344370;stroke-width:7px;}.cls-7{fill:#3c3d3e;opacity:0.1;isolation:isolate;}</style></defs><g id="Layer_2" data-name="Layer 2"><g id="Layer_1-2" data-name="Layer 1"><circle class="cls-1" cx="206.66" cy="206.66" r="206.66"/><path id="path147353" class="cls-2" d="M206.35,344.93a6.07,6.07,0,0,0-6,6.17h0v15a6.08,6.08,0,0,0,12.15.17V351.1a6.08,6.08,0,0,0-6-6.17Z"/><path id="path42837" class="cls-3" d="M206.35,344.94a6.27,6.27,0,0,0-6,6.52h0v3.22l6.29,4.16,5.86-3.86v-3.52a6.28,6.28,0,0,0-6-6.52Z"/><path id="path147373" class="cls-4" d="M150.88,43.24a6.07,6.07,0,0,0-.18,12.14h.18a30.2,30.2,0,0,1,30.27,30.3,6.08,6.08,0,0,0,12.15.17v-.17A42.52,42.52,0,0,0,150.88,43.24Z"/><path id="path147376" class="cls-4" d="M260,43.24a42.52,42.52,0,0,0-42.42,42.44,6.08,6.08,0,1,0,12.15.17v-.17A30.2,30.2,0,0,1,260,55.38a6.07,6.07,0,1,0,.17-12.14Z"/><path id="path42825" class="cls-3" d="M219.44,74a41.75,41.75,0,0,0-1.85,11.72,6.08,6.08,0,0,0,12.15.17v-.17a30.56,30.56,0,0,1,.83-6.88A47.87,47.87,0,0,0,219.44,74Z"/><path id="path42827" class="cls-3" d="M191.49,74.09A47.89,47.89,0,0,0,180.37,79a31,31,0,0,1,.78,6.66,6.08,6.08,0,0,0,12.15.17v-.17a41.67,41.67,0,0,0-1.81-11.6Z"/><path id="path9814-5" class="cls-5" d="M259.05,157.64V127.76c0-26.41-23.63-47.82-52.77-47.82h0c-29.15,0-52.78,21.41-52.78,47.82v29.88l-3.29,128.59s2.59,20.46,8,29.18c5.58,9,15.27,15.35,24,21.89,7.44,5.56,24,14.59,24,14.59s16.58-9,24-14.59c8.76-6.54,18.45-12.91,24-21.89,5.42-8.72,8-29.18,8-29.18Z"/><circle class="cls-6" cx="206.66" cy="269.65" r="63.14"/><line class="cls-6" x1="143.52" y1="269.65" x2="269.5" y2="269.65"/><line class="cls-6" x1="206.66" y1="332.65" x2="206.66" y2="206.66"/><line class="cls-6" x1="252.9" y1="315.9" x2="163.82" y2="226.81"/><line class="cls-6" x1="251.2" y1="225.11" x2="162.12" y2="314.2"/><path id="path9868-1" class="cls-4" d="M204.6,126.89s-66.76,33-89.15,73.31-23.56,82.06-2.61,93.65,55.85-11.54,78.24-51.83c2.18-3.92,13.94-32.08,15.58-36.55"/><path id="path42797" class="cls-7" d="M205.68,126.81s-4.28,2.2-9.47,5c-.89,19.54-1,53.52,6.34,83.58,1.53-3.71,3.66-8.76,4.1-10Z"/><path id="path9872-2" class="cls-4" d="M204.34,126.82s-7.9,74.89,14.77,115.19,58,63.41,79.2,51.83,20-53.35-2.64-93.64-91.32-73.38-91.32-73.38Z"/><path id="path42802" class="cls-7" d="M207.06,202.68l0,2.88c-.56,1.43-3.11,7.2-5.16,11.88,3,11.11,7,21.61,12.33,30.66,13.24,22.33,29.92,40,46.65,51.34.7-4,1.43-8.63,1.43-8.63l0-2c-14.9-9.84-29.82-25.5-41.61-45.37-6.88-11.61-11-26-13.62-40.73Z"/><circle class="cls-8" cx="206.66" cy="269.65" r="3"/></g></g></svg>